<svg width="1035" height="248" viewBox="0 0 1035 248" fill="none" xmlns="http://www.w3.org/2000/svg">
<g clip-path="url(#clip0)">
<path fill-rule="evenodd" clip-rule="evenodd" d="M334.625 80.2328C334.625 79.8891 334.625 79.6744 334.625 79.5455V78.4718C334.625 77.3326 334.17 76.2401 333.361 75.4346C332.551 74.6292 331.453 74.1766 330.309 74.1766H305.617C304.473 74.1766 303.375 74.6292 302.565 75.4346C301.756 76.2401 301.301 77.3326 301.301 78.4718C301.301 84.2702 301.301 98.2293 301.301 114.723V199.766C301.301 200.109 301.301 200.324 301.301 200.453V201.527C301.301 202.666 301.756 203.758 302.565 204.564C303.375 205.369 304.473 205.822 305.617 205.822H330.352C331.497 205.822 332.595 205.369 333.404 204.564C334.214 203.758 334.668 202.666 334.668 201.527C334.668 195.728 334.668 181.769 334.668 165.276L334.625 80.2328ZM497.837 42.2639H258.998C258.393 42.2609 257.794 42.3845 257.24 42.6267C256.686 42.8689 256.189 43.2243 255.782 43.6698C255.375 44.1153 255.067 44.641 254.877 45.2127C254.687 45.7845 254.621 46.3895 254.681 46.9886C254.681 52.1856 254.681 61.506 254.681 65.973C254.646 66.5583 254.731 67.1447 254.932 67.6959C255.133 68.2471 255.446 68.7515 255.85 69.1781C256.254 69.6046 256.742 69.9442 257.284 70.176C257.825 70.4078 258.408 70.5268 258.998 70.5258H338.942C338.942 70.5258 495.075 70.5258 497.794 70.5258C498.939 70.5258 500.037 70.0733 500.846 69.2678C501.656 68.4623 502.111 67.3698 502.111 66.2307V46.4731C502.099 45.3415 501.64 44.26 500.831 43.4638C500.023 42.6675 498.932 42.2209 497.794 42.221L497.837 42.2639ZM497.837 107.85H417.289C416.144 107.85 415.046 107.398 414.236 106.592C413.427 105.787 412.972 104.694 412.972 103.555C413.577 94.4299 417.726 85.8967 424.541 79.7603C426.44 77.8704 426.008 74.1766 420.569 74.1766H389.188C388.575 74.1759 387.972 74.3242 387.43 74.6087C386.888 74.8931 386.425 75.3052 386.08 75.8088C354.525 121.552 375.547 197.876 453.246 200.883H497.708C498.853 200.883 499.951 200.43 500.76 199.625C501.57 198.819 502.024 197.727 502.024 196.587V177.174C502.024 176.034 501.57 174.942 500.76 174.136C499.951 173.331 498.853 172.878 497.708 172.878H448.93C439.944 172.886 431.278 169.558 424.628 163.545C417.978 157.531 413.821 149.266 412.972 140.364C412.972 139.225 413.427 138.133 414.236 137.327C415.046 136.522 416.144 136.069 417.289 136.069H497.665C498.809 136.069 499.907 135.617 500.717 134.811C501.526 134.006 501.981 132.913 501.981 131.774V112.145C501.987 111.581 501.881 111.022 501.669 110.498C501.458 109.975 501.144 109.499 500.748 109.096C500.351 108.693 499.878 108.372 499.356 108.151C498.835 107.93 498.275 107.813 497.708 107.807L497.837 107.85ZM715.784 172.921H594.098C519.766 165.147 534.011 70.5258 594.4 70.5687H633.509C634.654 70.5687 635.752 70.1162 636.562 69.3107C637.371 68.5052 637.826 67.4128 637.826 66.2736V46.559C637.826 45.4199 637.371 44.3274 636.562 43.5219C635.752 42.7165 634.654 42.2639 633.509 42.2639H586.026C482.427 49.7804 481.477 191.433 584.472 200.84H671.107C671.107 200.84 712.979 200.84 715.698 200.84C716.843 200.84 717.941 200.387 718.75 199.582C719.56 198.776 720.015 197.684 720.015 196.544V177.088C719.992 175.956 719.521 174.879 718.705 174.091C717.888 173.303 716.792 172.867 715.655 172.878L715.784 172.921Z" fill="#434343"/>
<path fill-rule="evenodd" clip-rule="evenodd" d="M737.496 106.218H699.769C694.714 106.48 689.687 105.319 685.265 102.868C682.852 101.193 680.93 98.911 679.694 96.2548C678.457 93.5985 677.952 90.6634 678.229 87.7492C678.229 76.2956 684.603 70.5687 697.352 70.5687H776.994C778.139 70.5687 779.236 70.1162 780.046 69.3107C780.856 68.5052 781.31 67.4128 781.31 66.2736V46.5161C781.31 45.377 780.856 44.2845 780.046 43.479C779.236 42.6735 778.139 42.221 776.994 42.221H693.251C634.286 46.5161 634.286 131.86 693.683 134.008H730.849C736.133 134.007 741.272 135.727 745.482 138.904C747.775 140.628 749.611 142.882 750.83 145.472C752.048 148.062 752.613 150.909 752.475 153.765C752.688 156.498 752.221 159.24 751.114 161.75C750.007 164.26 748.295 166.46 746.13 168.154C741 171.448 734.96 173.055 728.863 172.75C728.258 172.747 727.659 172.87 727.105 173.112C726.551 173.355 726.055 173.71 725.647 174.155C725.24 174.601 724.932 175.127 724.742 175.698C724.553 176.27 724.486 176.875 724.547 177.474C724.547 182.671 724.547 191.777 724.547 196.201C724.511 196.786 724.597 197.373 724.798 197.924C724.999 198.475 725.311 198.979 725.716 199.406C726.12 199.833 726.608 200.172 727.149 200.404C727.691 200.636 728.274 200.755 728.863 200.754H737.065C738.446 200.754 739.741 200.754 741.036 200.754H742.029L745.612 200.41C746.82 200.41 748.029 200.024 749.195 199.809H750.101L753.209 199.036H753.554L756.792 197.962L757.612 197.661L760.331 196.544H760.72C761.713 196.115 762.662 195.6 763.569 195.084L764.303 194.698L766.634 193.28L767.022 193.023C767.886 192.464 768.706 191.863 769.483 191.261L770.087 190.789L772.03 189.114L772.418 188.77C773.152 188.126 773.843 187.396 774.533 186.709L775.051 186.15L776.692 184.303L777.08 183.874L778.807 181.555L779.195 180.953L780.49 178.935L780.792 178.419C781.282 177.589 781.742 176.758 782.174 175.928L782.476 175.327C782.821 174.596 783.166 173.866 783.469 173.136V172.75C795.296 144.831 780.577 107.893 737.496 106.218ZM980.696 42.3498H968.566C934.292 42.3498 940.767 42.3498 939.515 42.3498C938.37 42.3498 937.272 42.8024 936.463 43.6078C935.653 44.4133 935.198 45.5058 935.198 46.6449V66.3595C935.198 67.4987 935.653 68.5911 936.463 69.3966C937.272 70.2021 938.37 70.6546 939.515 70.6546H980.653C983.47 70.5236 986.278 71.0815 988.828 72.2795C991.379 73.4775 993.597 75.2791 995.286 77.5268C998.37 82.0637 999.885 87.4764 999.603 92.9463C999.908 96.5138 999.464 100.106 998.297 103.492C997.13 106.879 995.267 109.987 992.826 112.618C989.014 115.529 984.221 116.867 979.444 116.355C979.444 116.355 940.94 116.355 939.688 116.355C938.543 116.355 937.445 116.807 936.635 117.613C935.826 118.418 935.371 119.511 935.371 120.65V141.61C935.371 142.749 935.826 143.842 936.635 144.647C937.445 145.453 938.543 145.905 939.688 145.905H983.588C1057.36 137.444 1047.6 43.8531 980.696 42.3498Z" fill="#434343"/>
<path fill-rule="evenodd" clip-rule="evenodd" d="M924.364 42.4787H899.37C898.226 42.4787 897.128 42.9312 896.318 43.7367C895.509 44.5422 895.054 45.6346 895.054 46.7738V188.985C895.054 189.372 895.208 189.744 895.484 190.018C895.759 190.292 896.132 190.445 896.521 190.445C896.814 190.44 897.099 190.351 897.342 190.188C914.608 179.278 927.558 160.122 928.422 132.504V46.6879C928.402 45.6069 927.973 44.5731 927.221 43.7929C926.469 43.0127 925.448 42.5434 924.364 42.4787V42.4787Z" fill="#434343"/>
<path fill-rule="evenodd" clip-rule="evenodd" d="M884.912 158.919C884.437 158.919 883.967 159.014 883.529 159.198C883.091 159.383 882.696 159.653 882.365 159.993C862.379 176.615 826.249 167.767 823.789 132.118V46.7308C823.789 45.5917 823.334 44.4992 822.524 43.6937C821.715 42.8883 820.617 42.4357 819.472 42.4357H794.824C793.679 42.4357 792.581 42.8883 791.772 43.6937C790.962 44.4992 790.507 45.5917 790.507 46.7308V132.161C792.277 190.016 845.674 211.277 885.473 196.029C886.307 195.719 887.023 195.161 887.525 194.431C888.028 193.701 888.291 192.834 888.279 191.949V162.355C888.258 161.465 887.9 160.616 887.275 159.978C886.65 159.341 885.806 158.962 884.912 158.919V158.919Z" fill="#434343"/>
<path fill-rule="evenodd" clip-rule="evenodd" d="M120.002 0.472679C141.585 10.1367 180.435 38.6992 183.198 40.4173C183.865 40.7058 184.449 41.1578 184.894 41.7311C185.339 42.3044 185.631 42.9804 185.743 43.6962C185.855 44.4121 185.784 45.1444 185.535 45.8253C185.286 46.5061 184.868 47.1132 184.32 47.5901C183.716 48.0196 136.837 90.5413 127.729 98.0577C127.145 98.5804 126.429 98.9348 125.658 99.0826C124.887 99.2304 124.09 99.1661 123.352 98.8966C122.615 98.627 121.966 98.1625 121.474 97.553C120.983 96.9435 120.668 96.2121 120.563 95.4377C120.563 93.5908 119.57 74.7782 119.57 74.7782C114.324 73.7446 108.894 74.1632 103.87 75.9884C98.8467 77.8136 94.4228 80.9754 91.0805 85.1294C90.765 85.5539 90.3607 85.9053 89.8955 86.1592C89.4303 86.4132 88.9152 86.5638 88.3859 86.6005C87.8565 86.6373 87.3255 86.5593 86.8293 86.3721C86.3332 86.1849 85.8838 85.8928 85.5121 85.516L58.3173 51.5416C57.9818 51.181 57.728 50.753 57.5729 50.2866C57.4178 49.8201 57.3651 49.3259 57.4183 48.8374C57.4715 48.3489 57.6293 47.8774 57.8812 47.4548C58.1331 47.0322 58.4731 46.6682 58.8784 46.3875C74.9706 33.1429 94.779 25.163 115.599 23.5375L113.743 4.29533C113.745 3.56317 113.935 2.84373 114.296 2.20533C114.656 1.56693 115.174 1.03077 115.801 0.647762C116.429 0.264756 117.144 0.047621 117.879 0.0169781C118.614 -0.0136649 119.345 0.143201 120.002 0.472679V0.472679Z" fill="#00ABEC"/>
<path fill-rule="evenodd" clip-rule="evenodd" d="M250.363 125.89C239.097 146.592 207.585 183.058 205.686 185.635C205.351 186.282 204.855 186.834 204.246 187.238C203.638 187.643 202.935 187.887 202.206 187.947C201.477 188.007 200.744 187.881 200.076 187.582C199.409 187.283 198.829 186.82 198.391 186.236C198.003 185.592 159.066 135.812 151.987 126.405C151.495 125.788 151.183 125.048 151.085 124.266C150.988 123.484 151.108 122.69 151.434 121.972C151.759 121.253 152.277 120.638 152.93 120.192C153.584 119.747 154.347 119.489 155.138 119.447C156.994 119.447 175.944 119.963 175.944 119.963C177.366 114.832 177.345 109.411 175.883 104.291C174.422 99.1715 171.576 94.5491 167.657 90.9276C167.249 90.589 166.921 90.1653 166.695 89.6866C166.47 89.2079 166.353 88.6858 166.353 88.1572C166.353 87.6287 166.47 87.1066 166.695 86.6278C166.921 86.1491 167.249 85.7255 167.657 85.3869L203.744 60.9477C204.131 60.6396 204.58 60.4179 205.06 60.2978C205.541 60.1777 206.042 60.162 206.529 60.2516C207.016 60.3412 207.479 60.5342 207.884 60.8173C208.29 61.1005 208.63 61.4672 208.88 61.8926C220.949 78.8489 227.461 99.0991 227.528 119.877L247.126 119.447C247.841 119.528 248.524 119.784 249.113 120.194C249.703 120.604 250.18 121.154 250.502 121.794C250.823 122.434 250.979 123.144 250.955 123.86C250.931 124.575 250.727 125.273 250.363 125.89V125.89Z" fill="#A9DEF7"/>
<path fill-rule="evenodd" clip-rule="evenodd" d="M0.646599 122.196C11.913 101.494 43.4245 65.028 45.3238 62.408C45.6633 61.7634 46.162 61.2152 46.7728 60.8149C47.3837 60.4146 48.0867 60.1753 48.816 60.1195C49.5453 60.0636 50.2769 60.1931 50.9421 60.4958C51.6073 60.7984 52.1843 61.2643 52.6189 61.8496C53.0074 62.4939 91.9435 112.274 99.0227 121.724C99.5657 122.338 99.9209 123.094 100.047 123.903C100.172 124.712 100.063 125.539 99.7321 126.288C99.401 127.037 98.8618 127.677 98.1779 128.131C97.494 128.586 96.6938 128.836 95.8716 128.853C94.0154 128.853 75.0654 128.338 75.0654 128.338C73.6389 133.465 73.6532 138.883 75.107 144.003C76.5607 149.122 79.3981 153.747 83.3102 157.373C83.7181 157.712 84.0462 158.135 84.2714 158.614C84.4966 159.093 84.6133 159.615 84.6133 160.143C84.6133 160.672 84.4966 161.194 84.2714 161.673C84.0462 162.151 83.7181 162.575 83.3102 162.914L47.2231 187.353C46.8398 187.66 46.3942 187.882 45.9168 188.001C45.4395 188.121 44.9417 188.137 44.4577 188.047C43.9737 187.957 43.515 187.764 43.1131 187.481C42.7112 187.198 42.3756 186.832 42.1295 186.408C30.0044 169.413 23.4741 149.094 23.4384 128.252L3.84091 128.853C3.09683 128.785 2.38341 128.525 1.77045 128.1C1.15748 127.674 0.665982 127.098 0.344029 126.427C0.0220759 125.756 -0.119298 125.013 -0.0662614 124.272C-0.0132244 123.53 0.232407 122.815 0.646599 122.196V122.196Z" fill="#00BDF0"/>
<path fill-rule="evenodd" clip-rule="evenodd" d="M119.743 247.356C98.9371 236.231 62.2889 204.791 59.6989 202.901C59.0511 202.563 58.5002 202.067 58.0978 201.459C57.6955 200.852 57.455 200.152 57.3989 199.426C57.3428 198.701 57.473 197.973 57.7771 197.311C58.0813 196.649 58.5495 196.075 59.1378 195.643C59.7421 195.256 109.815 156.514 119.268 149.47C119.889 148.992 120.629 148.692 121.409 148.601C122.188 148.511 122.978 148.633 123.692 148.956C124.407 149.278 125.02 149.788 125.465 150.431C125.91 151.074 126.17 151.826 126.218 152.605C126.218 154.452 125.7 173.308 125.7 173.308C130.853 174.723 136.297 174.706 141.442 173.26C146.586 171.813 151.234 168.993 154.881 165.104C155.221 164.698 155.647 164.372 156.128 164.148C156.609 163.924 157.134 163.808 157.665 163.808C158.196 163.808 158.721 163.924 159.202 164.148C159.683 164.372 160.109 164.698 160.449 165.104L185.011 201.011C185.33 201.394 185.562 201.842 185.69 202.323C185.818 202.804 185.84 203.307 185.754 203.797C185.668 204.287 185.476 204.753 185.191 205.162C184.906 205.571 184.535 205.913 184.104 206.166C167.078 218.175 146.744 224.67 125.873 224.763L126.305 244.263C126.211 244.976 125.94 245.654 125.515 246.236C125.09 246.817 124.525 247.283 123.872 247.591C123.219 247.898 122.499 248.038 121.778 247.997C121.056 247.956 120.357 247.736 119.743 247.356V247.356Z" fill="#6DCCF3"/>
</g>
<defs>
<clipPath id="clip0">
<rect width="1035" height="248" fill="white"/>
</clipPath>
</defs>
</svg>
